<svg preserveAspectRatio="none" width="100%" height="100%" overflow="visible" style="display: block;" viewBox="0 0 16.5 19.5" fill="none" xmlns="http://www.w3.org/2000/svg">
<g id="Vector">
<path d="M15.75 3.39706C15.75 4.85899 12.3921 6.04412 8.25 6.04412C4.10786 6.04412 0.75 4.85899 0.75 3.39706C0.75 1.93513 4.10786 0.75 8.25 0.75C12.3921 0.75 15.75 1.93513 15.75 3.39706Z" fill="var(--fill-0, #F8F8F8)"/>
<path d="M15.75 3.39706C15.75 4.85899 12.3921 6.04412 8.25 6.04412C4.10786 6.04412 0.75 4.85899 0.75 3.39706V7.63235C0.75 9.09428 4.10786 10.2794 8.25 10.2794C12.3921 10.2794 15.75 9.09428 15.75 7.63235V3.39706Z" fill="var(--fill-0, #F8F8F8)"/>
<path d="M15.75 7.63235C15.75 9.09428 12.3921 10.2794 8.25 10.2794C4.10786 10.2794 0.75 9.09428 0.75 7.63235V11.8676C0.75 13.3296 4.10786 14.5147 8.25 14.5147C12.3921 14.5147 15.75 13.3296 15.75 11.8676V7.63235Z" fill="var(--fill-0, #F8F8F8)"/>
<path d="M15.75 11.8676C15.75 13.3296 12.3921 14.5147 8.25 14.5147C4.10786 14.5147 0.75 13.3296 0.75 11.8676V16.1029C0.75 17.5649 4.10786 18.75 8.25 18.75C12.3921 18.75 15.75 17.5649 15.75 16.1029V11.8676Z" fill="var(--fill-0, #F8F8F8)"/>
<path d="M15.75 3.39706C15.75 4.85899 12.3921 6.04412 8.25 6.04412C4.10786 6.04412 0.75 4.85899 0.75 3.39706M15.75 3.39706C15.75 1.93513 12.3921 0.75 8.25 0.75C4.10786 0.75 0.75 1.93513 0.75 3.39706M15.75 3.39706V16.1029M15.75 3.39706V7.63235M0.75 3.39706V16.1029M0.75 3.39706V7.63235M15.75 7.63235C15.75 9.09428 12.3921 10.2794 8.25 10.2794C4.10786 10.2794 0.75 9.09428 0.75 7.63235M15.75 7.63235V11.8676M0.75 7.63235V11.8676M15.75 11.8676C15.75 13.3296 12.3921 14.5147 8.25 14.5147C4.10786 14.5147 0.75 13.3296 0.75 11.8676M15.75 11.8676V16.1029M0.75 11.8676V16.1029M15.75 16.1029C15.75 17.5649 12.3921 18.75 8.25 18.75C4.10786 18.75 0.75 17.5649 0.75 16.1029" stroke="var(--stroke-0, #95939F)" stroke-width="1.5"/>
</g>
</svg>
